<?xml version="1.0" encoding="UTF-8" standalone="no"?>
<!-- Generator: Adobe Illustrator 25.0.1, SVG Export Plug-In . SVG Version: 6.00 Build 0)  -->

<svg
   enable-background="new 0 0 481.5 449"
   id="t-logo"
   version="1.1"
   viewBox="0 0 481.5 449"
   x="0px"
   xml:space="preserve"
   y="0px"
   sodipodi:docname="site-logo.svg"
   inkscape:version="1.4.2 (f4327f4, 2025-05-13)"
   xmlns:inkscape="http://www.inkscape.org/namespaces/inkscape"
   xmlns:sodipodi="http://sodipodi.sourceforge.net/DTD/sodipodi-0.dtd"
   xmlns:xlink="http://www.w3.org/1999/xlink"
   xmlns="http://www.w3.org/2000/svg"
   xmlns:svg="http://www.w3.org/2000/svg"><defs
   id="defs1011"><inkscape:path-effect
     effect="powerclip"
     message=""
     id="path-effect43"
     is_visible="true"
     lpeversion="1"
     inverse="true"
     flatten="false"
     hide_clip="false" /><inkscape:path-effect
     effect="powerclip"
     message=""
     id="path-effect1154"
     is_visible="true"
     lpeversion="1"
     inverse="true"
     flatten="false"
     hide_clip="false" /><clipPath
     clipPathUnits="userSpaceOnUse"
     id="clipPath1164"><use
       x="0"
       y="0"
       xlink:href="#g1163"
       id="use1164" /></clipPath><clipPath
     clipPathUnits="userSpaceOnUse"
     id="clipPath35"><g
       id="g43"
       clip-path="url(#clipPath1164)"
       style="display:none"><g
         inkscape:label="Clip"
         id="g41"><g
           id="g37"
           inkscape:label="Road"
           inkscape:groupmode="layer"
           style="display:inline"><path
             style="fill:#ff00ff;fill-opacity:1"
             d="m 295.12066,242.44259 -3.62841,-6.97997 c 0,0 -9.07296,10.78902 -11.50757,34.42436 -2.43461,23.63534 7.02397,39.04981 7.02397,39.04981 l 9.94232,-0.78952 c 0,0 -11.94359,-17.5616 -11.75346,-35.21121 0.15928,-14.78573 5.88939,-33.48395 5.88939,-33.48395 z"
             id="path35"
             sodipodi:nodetypes="cczccscc" /><path
             style="fill:#ff00ff;fill-opacity:1"
             d="m 197.49746,312.17975 c 0,0 -0.006,-20.54114 8.36021,-41.70265 8.36646,-21.16151 18.78586,-34.42435 18.78586,-34.42435 l -9.2454,-0.39342 c 0,0 -7.95364,15.80073 -14.65494,31.96548 -6.7013,16.16475 -11.60677,41.32849 -11.60677,41.32849 z"
             id="path36"
             sodipodi:nodetypes="czcczcc" /><path
             style="fill:#ff00ff;fill-opacity:1"
             d="m 248.27064,215.61871 c 0,0 18.79681,-10.58068 27.12423,-14.38375 8.32741,-3.80307 46.67659,-19.56776 46.67659,-19.56776 l -6.82461,-1.00252 c 0,0 -34.01623,11.98054 -42.50758,15.55412 -8.49134,3.57357 -19.67106,9.29457 -19.67106,9.29457 z"
             id="path37"
             sodipodi:nodetypes="czcczcc" /></g><g
           inkscape:groupmode="layer"
           id="g40"
           inkscape:label="Strip"
           style="display:inline"><path
             style="display:inline;fill:#4aff00;fill-opacity:1"
             d="m 345.93029,191.1171 c 0,0 -45.11328,-2.92101 -79.84077,36.16481 -34.72749,39.08581 -34.91294,81.7881 -34.91294,81.7881 h 12.2404 c 0,0 3.06009,-46.59696 30.32279,-78.17162 27.2627,-31.57466 72.19052,-39.78129 72.19052,-39.78129 z"
             id="path38"
             sodipodi:nodetypes="czcczc"
             clip-path="none" /><g
             id="g39"
             style="display:inline" /></g></g></g><path
       id="lpe_path-effect43"
       class="powerclip"
       d="M 72.300176,97.294492 H 403.43483 V 313.4083 H 72.300176 Z m 222.820484,145.148098 -3.62841,-6.97997 c 0,0 -9.07296,10.78902 -11.50757,34.42436 -2.43461,23.63534 7.02397,39.04981 7.02397,39.04981 l 9.94232,-0.78952 c 0,0 -11.94359,-17.5616 -11.75346,-35.21121 0.15928,-14.78573 5.88939,-33.48395 5.88939,-33.48395 z m -97.6232,69.73716 c 0,0 -0.006,-20.54114 8.36021,-41.70265 8.36646,-21.16151 18.78586,-34.42435 18.78586,-34.42435 l -9.2454,-0.39342 c 0,0 -7.95364,15.80073 -14.65494,31.96548 -6.7013,16.16475 -11.60677,41.32849 -11.60677,41.32849 z m 50.77318,-96.56104 c 0,0 18.79681,-10.58068 27.12423,-14.38375 8.32741,-3.80307 46.67659,-19.56776 46.67659,-19.56776 l -6.82461,-1.00252 c 0,0 -34.01623,11.98054 -42.50758,15.55412 -8.49134,3.57357 -19.67106,9.29457 -19.67106,9.29457 z m 97.65965,-24.50161 c 0,0 -45.11328,-2.92101 -79.84077,36.16481 -34.72749,39.08581 -34.91294,81.7881 -34.91294,81.7881 h 12.2404 c 0,0 3.06009,-46.59696 30.32279,-78.17162 27.2627,-31.57466 72.19052,-39.78129 72.19052,-39.78129 z" /></clipPath></defs><sodipodi:namedview
   id="namedview1011"
   pagecolor="#ffffff"
   bordercolor="#000000"
   borderopacity="0.25"
   inkscape:showpageshadow="2"
   inkscape:pageopacity="0.0"
   inkscape:pagecheckerboard="true"
   inkscape:deskcolor="#d1d1d1"
   inkscape:zoom="2.5418048"
   inkscape:cx="184.31785"
   inkscape:cy="227.98761"
   inkscape:window-width="1920"
   inkscape:window-height="1009"
   inkscape:window-x="1912"
   inkscape:window-y="-8"
   inkscape:window-maximized="1"
   inkscape:current-layer="t-logo"
   showborder="false" />

<g
   id="g44"
   transform="matrix(1.4982473,0,0,1.4982473,-113.4006,-68.30981)"
   style="fill:#ffffff"><g
     id="g1043"
     style="display:inline;fill:#ffffff"
     inkscape:label="RR"
     clip-path="url(#clipPath35)"
     inkscape:path-effect="#path-effect43"><g
       id="layer4"
       inkscape:label="Clip"
       inkscape:groupmode="layer"
       style="display:inline;fill:#ffffff"><path
         style="display:inline;fill:#ffffff"
         d="m 352.08783,180.16233 c 0,0 -76.70292,11.13726 -115.51875,44.37143 -38.81583,33.23417 -39.29445,83.87454 -39.29445,83.87454 l 95.4428,-0.30182 c 0,0 -13.14997,-7.60264 -8.45762,-52.26624 4.69235,-44.6636 68.03666,-54.3963 68.03666,-54.3963 z"
         id="path1011"
         sodipodi:nodetypes="czcczcc"
         inkscape:original-d="m 352.08783,180.16233 c 0,0 -76.70292,11.13726 -115.51875,44.37143 -38.81583,33.23417 -39.29445,83.87454 -39.29445,83.87454 l 95.4428,-0.30182 c 0,0 -13.14997,-7.60264 -8.45762,-52.26624 4.69235,-44.6636 68.03666,-54.3963 68.03666,-54.3963 z" /><text
         xml:space="preserve"
         style="font-style:normal;font-variant:normal;font-weight:bold;font-stretch:normal;font-size:270.096px;font-family:sans-serif;-inkscape-font-specification:'sans-serif Bold';text-align:start;writing-mode:lr-tb;direction:ltr;text-anchor:start;display:inline;fill:#ffffff;stroke-width:2.8135"
         x="56.198925"
         y="294.18399"
         id="text1011"><tspan
           sodipodi:role="line"
           id="tspan1011"
           x="56.198925"
           y="294.18399"
           style="font-style:normal;font-variant:normal;font-weight:bold;font-stretch:normal;font-family:Bahnschrift;-inkscape-font-specification:'Bahnschrift Bold';fill:#ffffff;stroke-width:2.8135">RR</tspan></text></g></g><g
     id="g1153"
     inkscape:label="Clip 3"
     style="display:inline;fill:#ffffff"><path
       style="fill:#ffffff;fill-opacity:1"
       d="m 316.58117,194.1772 4.31195,8.41527 -9.59758,3.89467 -4.86834,-8.76301 9.66713,-3.68603 z"
       id="path1150" /><path
       style="fill:#ffffff;fill-opacity:1"
       d="m 291.68309,206.06986 6.74612,6.81567 -9.24984,6.74613 -7.85889,-9.0412 z"
       id="path1151" /><path
       style="fill:#ffffff;fill-opacity:1"
       d="m 260.943,228.32512 10.29306,6.74613 -7.5807,10.71035 -11.19718,-8.97166 z"
       id="path1152" /><path
       style="fill:#ffffff;fill-opacity:1"
       d="m 258.43928,263.72491 -25.17627,-0.0696 -2.01688,11.26673 23.99396,-0.48684 z"
       id="path1153" /></g></g></svg>
